# xmcd
#
# Track frame offsets: 
#        150
#        14740
#        32220
#        47297
#        64155
#        76605
#        90832
#        104807
#        116692
#        131997
#        144012
#        158340
#        170552
#        182937
#
# Disc length: 2644 seconds
#
# Revision: 3
# Processed by: cddbd v1.5.2PL0 Copyright (c) Steve Scherf et al.
# Submitted via: ExactAudioCopyFreeDBPlugin 1.0
#
DISCID=b10a520e
DTITLE=Tom Astor - ... Und Ich bin dein Freund
DYEAR=1998
DGENRE=Country
TTITLE0=Musik ist Wein für durstige Seelen
TTITLE1=So ist das Leben
TTITLE2=und Ich bin dein Freund
TTITLE3=Lass uns doch wieder mal...
TTITLE4=Schlaraffenland ist abgebrannt
TTITLE5=Ich vermisse Dich immer schon - bevor Ich wider geh'
TTITLE6=Zusammen gewonnen - zusammen verlor'n
TTITLE7=Perhaps Love
TTITLE8=Das kann's nicht gewesen sein
TTITLE9=Frau'n wie Du
TTITLE10=Alles Gute !
TTITLE11=Bock auf Zukunft
TTITLE12=What I've got in Mind
TTITLE13=Hand in Hand
EXTD=
EXTT0=
EXTT1=
EXTT2=
EXTT3=
EXTT4=
EXTT5=
EXTT6=
EXTT7=
EXTT8=
EXTT9=
EXTT10=
EXTT11=
EXTT12=
EXTT13=
PLAYORDER=
